<svg xmlns="http://www.w3.org/2000/svg" viewBox="0 0 1440 320"><defs><linearGradient id="g" x1="0" x2="1" y1="0" y2="1"><stop stop-color="#0a0e27"/><stop offset="1" stop-color="#1a1f3a"/></linearGradient></defs><path fill="url(#g)" d="M0,224L48,197.3C96,171,192,117,288,106.7C384,96,480,128,576,138.7C672,149,768,139,864,160C960,181,1056,235,1152,245.3C1248,256,1344,224,1392,208L1440,192L1440,0L1392,0C1344,0,1248,0,1152,0C1056,0,960,0,864,0C768,0,672,0,576,0C480,0,384,0,288,0C192,0,96,0,48,0L0,0Z"/></svg>
